# xmcd
#
# Track frame offsets:
#	150
#	20823
#	39673
#	53819
#	85639
#	104308
#	126225
#	158062
#	178433
#	207951
#	225934
#	247441
#
# Disc length: 3511 seconds
#
# Revision: 1
# Processed by: cddbd v1.5.2PL0 Copyright (c) Steve Scherf et al.
# Submitted via: audiograbber 1.82.01
#
DISCID=a40db50c
DTITLE=The Rhythmators - Beyond the Blues
DYEAR=2009
DGENRE=Blues
TTITLE0=Bad Dream
TTITLE1=Can't Get The Feelin'
TTITLE2=Nothing To Lose
TTITLE3=Past The Storm
TTITLE4=Same Old Thing
TTITLE5=Ain't Gonna Let It Get Me Down
TTITLE6=I Will Turn To You
TTITLE7=Bits And Pieces
TTITLE8=My Life Now
TTITLE9=When You're Coming Home
TTITLE10=I Believe In This Love
TTITLE11=Beyond The Blues
EXTD=Michael J. Dohoney: Vocals - Drums - Percussion\nChris Clifton: Guitar - Back
EXTD=ground Vocals\nMike Stockton: Bass - Synthesizer
EXTT0=
EXTT1=
EXTT2=
EXTT3=
EXTT4=
EXTT5=
EXTT6=
EXTT7=
EXTT8=
EXTT9=
EXTT10=
EXTT11=
PLAYORDER=
